<svg height='100px' width='100px'  fill="#000000" xmlns="http://www.w3.org/2000/svg" viewBox="0 0 32 32" x="0px" y="0px"><title>coding, symbol, computing,development, </title><g data-name="Layer 12"><path d="M9,26a4,4,0,0,1-4-4V19.61a2,2,0,0,0-.89-1.67L2.45,16.83a1,1,0,0,1,0-1.66l1.66-1.11A2,2,0,0,0,5,12.39V10A4,4,0,0,1,9,6,1,1,0,0,1,9,8a2,2,0,0,0-2,2v2.39a4,4,0,0,1-1.78,3.33L4.8,16l.42.28A4,4,0,0,1,7,19.61V22a2,2,0,0,0,2,2,1,1,0,0,1,0,2Zm18-4V19.61a2,2,0,0,1,.89-1.67l1.66-1.11a1,1,0,0,0,0-1.66l-1.66-1.11A2,2,0,0,1,27,12.39V10a4,4,0,0,0-4-4,1,1,0,0,0,0,2,2,2,0,0,1,2,2v2.39a4,4,0,0,0,1.78,3.33l.42.28-.42.28A4,4,0,0,0,25,19.61V22a2,2,0,0,1-2,2,1,1,0,0,0,0,2A4,4,0,0,0,27,22ZM13,22a1,1,0,0,0-1-1H11a1,1,0,0,0,0,2h1A1,1,0,0,0,13,22Zm5,0a1,1,0,0,0-1-1H15a1,1,0,0,0,0,2h2A1,1,0,0,0,18,22Zm4,0a1,1,0,0,0-1-1H20a1,1,0,0,0,0,2h1A1,1,0,0,0,22,22Z"></path></g></svg>