<svg height='100px' width='100px'  fill="#000000" xmlns="http://www.w3.org/2000/svg" xmlns:xlink="http://www.w3.org/1999/xlink" version="1.1" x="0px" y="0px" viewBox="0 0 1024 1024" style="enable-background:new 0 0 1024 1024;" xml:space="preserve"><g><g><g><path d="M685.7,366.1c0.5,8.9-0.4,18.1-1.6,26.9c0.5-3.5,1-7.1,1.4-10.6c-2.7,19.6-8,38.8-15.6,57.1     c1.3-3.2,2.7-6.4,4-9.6c-7.7,18.2-17.7,35.2-29.7,50.8c2.1-2.7,4.2-5.4,6.3-8.1c-12.9,16.6-28,31.2-44.6,44.1     c2.7-2.1,5.4-4.2,8.1-6.3c-26,20-54.9,35.7-85.1,48.5c3.2-1.3,6.4-2.7,9.6-4c-46.8,19.7-95.9,31-144.3,45.6     c-11.5,3.5-22.6,7.6-33.7,12.4c-15.3,6.6-28.6,15.8-41.5,26.4c-18.9,15.5-34.6,36.4-44.8,58.5c-5.8,12.5-11.9,26.3-14.2,40.1     c-1.8,11-1.8,20.9,4,30.8c4.9,8.3,14.4,16.2,23.9,18.4c10.2,2.3,21.7,1.8,30.8-4c8.2-5.3,16.8-13.8,18.4-23.9     c1.4-9,4.7-17.9,8.2-26.3c-1.3,3.2-2.7,6.4-4,9.6c4.9-11.5,11.2-22.3,18.7-32.2c-2.1,2.7-4.2,5.4-6.3,8.1     c7.2-9.3,15.5-17.6,24.8-24.9c-2.7,2.1-5.4,4.2-8.1,6.3c9.4-7.2,19.5-13,30.3-17.7c-3.2,1.3-6.4,2.7-9.6,4     c26.3-11,54.8-16.9,82.1-24.6c40.3-11.4,80-25.1,117.7-43.3c40.9-19.8,80.7-46.8,110.1-81.8c26.6-31.7,46.7-68.5,56.8-108.8     c3.8-15.3,6.2-31.2,7.3-47c0.3-4.8,0.6-9.7,0.3-14.5c-0.6-10.6-4-20.6-11.7-28.3c-6.9-6.9-18.3-12.2-28.3-11.7     c-10.3,0.5-21.1,3.9-28.3,11.7C690.4,345.3,685.1,355.5,685.7,366.1L685.7,366.1z"></path></g></g><g><g><path d="M338.4,821.2c0-20.6,0-41.1,0-61.7c0-49.4,0-98.8,0-148.1c0-59.5,0-119,0-178.6c0-51.4,0-102.8,0-154.2     c0-24.9,0.4-49.9,0-74.8c0-0.3,0-0.7,0-1c0-20.9-18.4-41-40-40c-21.7,1-40,17.6-40,40c0,20.6,0,41.1,0,61.7     c0,49.4,0,98.8,0,148.1c0,59.5,0,119,0,178.6c0,51.4,0,102.8,0,154.2c0,24.9-0.4,49.9,0,74.8c0,0.3,0,0.7,0,1     c0,20.9,18.4,41,40,40C320.1,860.3,338.4,843.7,338.4,821.2L338.4,821.2z"></path></g></g><g><g><path d="M756.1,295.7c0,3.2-0.2,6.4-0.7,9.7c0.5-3.5,1-7.1,1.4-10.6c-0.9,6.2-2.6,12.2-5,18     c1.3-3.2,2.7-6.4,4-9.6c-2.5,5.6-5.6,10.9-9.3,15.7c2.1-2.7,4.2-5.4,6.3-8.1c-3.5,4.4-7.5,8.4-11.9,11.9c2.7-2.1,5.4-4.2,8.1-6.3     c-4.9,3.8-10.1,6.9-15.7,9.3c3.2-1.3,6.4-2.7,9.6-4c-5.8,2.4-11.8,4.1-18,5c3.5-0.5,7.1-1,10.6-1.4c-6.5,0.8-12.9,0.8-19.3,0     c3.5,0.5,7.1,1,10.6,1.4c-6.2-0.9-12.2-2.6-18-5c3.2,1.3,6.4,2.7,9.6,4c-5.6-2.5-10.9-5.6-15.7-9.3c2.7,2.1,5.4,4.2,8.1,6.3     c-4.4-3.5-8.4-7.5-11.9-11.9c2.1,2.7,4.2,5.4,6.3,8.1c-3.8-4.9-6.9-10.1-9.3-15.7c1.3,3.2,2.7,6.4,4,9.6c-2.4-5.8-4.1-11.8-5-18     c0.5,3.5,1,7.1,1.4,10.6c-0.8-6.5-0.8-12.9,0-19.3c-0.5,3.5-1,7.1-1.4,10.6c0.9-6.2,2.6-12.2,5-18c-1.3,3.2-2.7,6.4-4,9.6     c2.5-5.6,5.6-10.9,9.3-15.7c-2.1,2.7-4.2,5.4-6.3,8.1c3.5-4.4,7.5-8.4,11.9-11.9c-2.7,2.1-5.4,4.2-8.1,6.3     c4.9-3.8,10.1-6.9,15.7-9.3c-3.2,1.3-6.4,2.7-9.6,4c5.8-2.4,11.8-4.1,18-5c-3.5,0.5-7.1,1-10.6,1.4c6.5-0.8,12.9-0.8,19.3,0     c-3.5-0.5-7.1-1-10.6-1.4c6.2,0.9,12.2,2.6,18,5c-3.2-1.3-6.4-2.7-9.6-4c5.6,2.5,10.9,5.6,15.7,9.3c-2.7-2.1-5.4-4.2-8.1-6.3     c4.4,3.5,8.4,7.5,11.9,11.9c-2.1-2.7-4.2-5.4-6.3-8.1c3.8,4.9,6.9,10.1,9.3,15.7c-1.3-3.2-2.7-6.4-4-9.6c2.4,5.8,4.1,11.8,5,18     c-0.5-3.5-1-7.1-1.4-10.6C755.8,289.2,756,292.4,756.1,295.7c0.1,10.3,4.4,21,11.7,28.3c6.9,6.9,18.3,12.2,28.3,11.7     c21.5-1,40.2-17.6,40-40c-0.2-21.3-6.2-44.1-18.9-61.5c-8.4-11.6-16.5-19.7-27.9-28.4c-8.6-6.5-18.2-10.8-28.4-14.6     c-10.2-3.8-21.6-5.4-32.5-5.8c-10.8-0.4-22,1.1-32.4,3.9c-20.1,5.6-40,17.5-53.3,33.6c-9.1,11-15,21.2-20.4,34.4     c-4.3,10.4-6,21.5-6.9,32.8c-1.7,21.1,4.4,44.2,15.4,62.2c10.7,17.6,26.8,33.4,45.7,42.1c13.6,6.2,25.3,9.3,40.1,11.1     c11.1,1.3,22.4,0,33.3-2.2c21.8-4.3,43.8-17.4,58.1-34.4c17.6-20.9,27.7-45.8,27.9-73.2c0.2-20.9-18.5-41-40-40     C774.2,256.6,756.3,273.2,756.1,295.7z"></path></g></g><g><g><path d="M328.7,132.4c0,3.2-0.2,6.4-0.7,9.7c0.5-3.5,1-7.1,1.4-10.6c-0.9,6.2-2.6,12.2-5,18     c1.3-3.2,2.7-6.4,4-9.6c-2.5,5.6-5.6,10.9-9.3,15.7c2.1-2.7,4.2-5.4,6.3-8.1c-3.5,4.4-7.5,8.4-11.9,11.9c2.7-2.1,5.4-4.2,8.1-6.3     c-4.9,3.8-10.1,6.9-15.7,9.3c3.2-1.3,6.4-2.7,9.6-4c-5.8,2.4-11.8,4.1-18,5c3.5-0.5,7.1-1,10.6-1.4c-6.5,0.8-12.9,0.8-19.3,0     c3.5,0.5,7.1,1,10.6,1.4c-6.2-0.9-12.2-2.6-18-5c3.2,1.3,6.4,2.7,9.6,4c-5.6-2.5-10.9-5.6-15.7-9.3c2.7,2.1,5.4,4.2,8.1,6.3     c-4.4-3.5-8.4-7.5-11.9-11.9c2.1,2.7,4.2,5.4,6.3,8.1c-3.8-4.9-6.9-10.1-9.3-15.7c1.3,3.2,2.7,6.4,4,9.6c-2.4-5.8-4.1-11.8-5-18     c0.5,3.5,1,7.1,1.4,10.6c-0.8-6.5-0.8-12.9,0-19.3c-0.5,3.5-1,7.1-1.4,10.6c0.9-6.2,2.6-12.2,5-18c-1.3,3.2-2.7,6.4-4,9.6     c2.5-5.6,5.6-10.9,9.3-15.7c-2.1,2.7-4.2,5.4-6.3,8.1c3.5-4.4,7.5-8.4,11.9-11.9c-2.7,2.1-5.4,4.2-8.1,6.3     c4.9-3.8,10.1-6.9,15.7-9.3c-3.2,1.3-6.4,2.7-9.6,4c5.8-2.4,11.8-4.1,18-5c-3.5,0.5-7.1,1-10.6,1.4c6.5-0.8,12.9-0.8,19.3,0     c-3.5-0.5-7.1-1-10.6-1.4c6.2,0.9,12.2,2.6,18,5c-3.2-1.3-6.4-2.7-9.6-4c5.6,2.5,10.9,5.6,15.7,9.3c-2.7-2.1-5.4-4.2-8.1-6.3     c4.4,3.5,8.4,7.5,11.9,11.9c-2.1-2.7-4.2-5.4-6.3-8.1c3.8,4.9,6.9,10.1,9.3,15.7c-1.3-3.2-2.7-6.4-4-9.6c2.4,5.8,4.1,11.8,5,18     c-0.5-3.5-1-7.1-1.4-10.6C328.5,125.9,328.7,129.1,328.7,132.4c0.1,10.3,4.4,21,11.7,28.3c6.9,6.9,18.3,12.2,28.3,11.7     c21.5-1,40.2-17.6,40-40c-0.2-21.3-6.2-44.1-18.9-61.5c-8.4-11.6-16.5-19.7-27.9-28.4c-8.6-6.5-18.2-10.8-28.4-14.6     C323.4,24,312,22.5,301.1,22c-10.8-0.4-22,1.1-32.4,3.9c-20.1,5.6-40,17.5-53.3,33.6c-9.1,11-15,21.2-20.4,34.4     c-4.3,10.4-6,21.5-6.9,32.8c-1.7,21.1,4.4,44.2,15.4,62.2c10.7,17.6,26.8,33.4,45.7,42.1c13.6,6.2,25.3,9.3,40.1,11.1     c11.1,1.3,22.4,0,33.3-2.2c21.8-4.3,43.8-17.4,58.1-34.4c17.6-20.9,27.7-45.8,27.9-73.2c0.2-20.9-18.5-41-40-40     C346.9,93.3,328.9,109.9,328.7,132.4z"></path></g></g><g><g><path d="M329,891.6c0,3.2-0.2,6.4-0.7,9.7c0.5-3.5,1-7.1,1.4-10.6c-0.9,6.2-2.6,12.2-5,18c1.3-3.2,2.7-6.4,4-9.6     c-2.5,5.6-5.6,10.9-9.3,15.7c2.1-2.7,4.2-5.4,6.3-8.1c-3.5,4.4-7.5,8.4-11.9,11.9c2.7-2.1,5.4-4.2,8.1-6.3     c-4.9,3.8-10.1,6.9-15.7,9.3c3.2-1.3,6.4-2.7,9.6-4c-5.8,2.4-11.8,4.1-18,5c3.5-0.5,7.1-1,10.6-1.4c-6.5,0.8-12.9,0.8-19.3,0     c3.5,0.5,7.1,1,10.6,1.4c-6.2-0.9-12.2-2.6-18-5c3.2,1.3,6.4,2.7,9.6,4c-5.6-2.5-10.9-5.6-15.7-9.3c2.7,2.1,5.4,4.2,8.1,6.3     c-4.4-3.5-8.4-7.5-11.9-11.9c2.1,2.7,4.2,5.4,6.3,8.1c-3.8-4.9-6.9-10.1-9.3-15.7c1.3,3.2,2.7,6.4,4,9.6c-2.4-5.8-4.1-11.8-5-18     c0.5,3.5,1,7.1,1.4,10.6c-0.8-6.5-0.8-12.9,0-19.3c-0.5,3.5-1,7.1-1.4,10.6c0.9-6.2,2.6-12.2,5-18c-1.3,3.2-2.7,6.4-4,9.6     c2.5-5.6,5.6-10.9,9.3-15.7c-2.1,2.7-4.2,5.4-6.3,8.1c3.5-4.4,7.5-8.4,11.9-11.9c-2.7,2.1-5.4,4.2-8.1,6.3     c4.9-3.8,10.1-6.9,15.7-9.3c-3.2,1.3-6.4,2.7-9.6,4c5.8-2.4,11.8-4.1,18-5c-3.5,0.5-7.1,1-10.6,1.4c6.5-0.8,12.9-0.8,19.3,0     c-3.5-0.5-7.1-1-10.6-1.4c6.2,0.9,12.2,2.6,18,5c-3.2-1.3-6.4-2.7-9.6-4c5.6,2.5,10.9,5.6,15.7,9.3c-2.7-2.1-5.4-4.2-8.1-6.3     c4.4,3.5,8.4,7.5,11.9,11.9c-2.1-2.7-4.2-5.4-6.3-8.1c3.8,4.9,6.9,10.1,9.3,15.7c-1.3-3.2-2.7-6.4-4-9.6c2.4,5.8,4.1,11.8,5,18     c-0.5-3.5-1-7.1-1.4-10.6C328.8,885.2,329,888.4,329,891.6c0.1,10.3,4.4,21,11.7,28.3c6.9,6.9,18.3,12.2,28.3,11.7     c21.5-1,40.2-17.6,40-40c-0.2-21.3-6.2-44.1-18.9-61.5c-8.4-11.6-16.5-19.7-27.9-28.4c-8.6-6.5-18.2-10.8-28.4-14.6     c-10.2-3.8-21.6-5.4-32.5-5.8c-10.8-0.4-22,1.1-32.4,3.9c-20.1,5.6-40,17.5-53.3,33.6c-9.1,11-15,21.2-20.4,34.4     c-4.3,10.4-6,21.5-6.9,32.8c-1.7,21.1,4.4,44.2,15.4,62.2c10.7,17.6,26.8,33.4,45.7,42.1c13.6,6.2,25.3,9.3,40.1,11.1     c11.1,1.3,22.4,0,33.3-2.2c21.8-4.3,43.8-17.4,58.1-34.4c17.6-20.9,27.7-45.8,27.9-73.2c0.2-20.9-18.5-41-40-40     C347.2,852.6,329.2,869.2,329,891.6z"></path></g></g></g></svg>